<svg xmlns="http://www.w3.org/2000/svg" viewBox="0 0 128 128">
    <g transform="rotate(-3 64 64)">
        <rect x="18" y="16" width="96" height="96" rx="20" fill="#0b0b12" />
        <rect x="12" y="10" width="96" height="96" rx="20" fill="#f5cf0a" stroke="#0b0b12" stroke-width="8" />
        <path fill="#0b0b12" d="M36.84 42.53Q36.84 37.3 40.47 33.66Q44.1 30.03 49.3 30.03Q54.49 30.03 58.14 33.68Q61.8 37.34 61.8 42.53Q61.8 47.73 58.14 51.36Q54.49 54.99 49.3 54.99Q44.1 54.99 40.47 51.38Q36.84 47.77 36.84 42.53ZM49.3 37.18Q47.07 37.18 45.51 38.72Q43.95 40.27 43.95 42.53Q43.95 44.8 45.51 46.34Q47.07 47.88 49.3 47.88Q51.56 47.88 53.11 46.34Q54.65 44.8 54.65 42.53Q54.65 40.3 53.09 38.74Q51.52 37.18 49.3 37.18ZM38.91 64.05 79.61 47.73 81.21 51.48 40.27 67.8ZM58.2 73.51Q58.2 68.27 61.82 64.64Q65.43 61.01 70.66 61.01Q75.82 61.01 79.49 64.66Q83.16 68.31 83.16 73.51Q83.16 78.66 79.49 82.32Q75.82 85.97 70.66 85.97Q65.43 85.97 61.82 82.36Q58.2 78.74 58.2 73.51ZM70.59 68.12Q68.4 68.12 66.86 69.68Q65.31 71.24 65.31 73.51Q65.31 75.77 66.84 77.32Q68.36 78.86 70.59 78.86Q72.85 78.86 74.43 77.3Q76.02 75.73 76.02 73.51Q76.02 71.28 74.41 69.7Q72.81 68.12 70.59 68.12Z" />
    </g>
</svg>
